<svg id="Camada_1" data-name="Camada 1" xmlns="http://www.w3.org/2000/svg" width="979.69" height="979.69" viewBox="0 0 979.69 979.69"><defs><style>.cls-1{fill:#633bbf;stroke:#1d1d1b;stroke-miterlimit:10;}.cls-2{fill:#fff;}</style></defs><rect class="cls-1" x="0.5" y="0.5" width="978.69" height="978.69" rx="71.24"/><path class="cls-2" d="M919.79,166.53q9.42,11.67,9.42,30.5,0,61.89-66.38,57.4l-31.39-2.69q-52.94-4.47-105.39-7.17t-109.87-2.69H575.82Q565.06,374.63,553.4,484l154.27-2.69q33.17,0,44.4,11.66t11.21,31.4q0,30.5-17.94,48t-51.13,17.49H540.84l-5.38,38.57q-18.84,148-80.28,210.77T286.12,902q-61,0-112.12-26.46T98.66,811.42q-9.89-15.24-9.87-36.77T99.11,737q10.29-16.15,25.56-16.15,10.77,0,21.08,7.18t26.46,27.8q43,56.51,106.73,56.51,51.12,0,85.66-41.71T409,639.21l5.39-49.33H371.32q-20.64,0-35.43-11.66T321.1,545q0-27.78,14.35-42.6t42.15-14.8q25.09,0,49.33-.89,10.77-98.65,23.32-239.48-96.87,9-136.33,31.39T274.46,345q0,30.51,17.93,58.3,5.39,8.07,5.39,16.15,0,16.14-17.94,28.25a70.56,70.56,0,0,1-40.36,12.11q-24.22,0-41.26-14.35-10.77-9-20.63-36.78t-9.87-61.88q0-111.21,114.36-161.45t334.1-50.23q152.48,0,269.08,16.15Q910.36,154.88,919.79,166.53Z" transform="translate(-10.16 -13.79)"/></svg>